M48
; DRILL file {KiCad 9.0.1} date 2026-03-16T12:34:34-0500
; FORMAT={-:-/ absolute / inch / decimal}
; #@! TF.CreationDate,2026-03-16T12:34:34-05:00
; #@! TF.GenerationSoftware,Kicad,Pcbnew,9.0.1
; #@! TF.FileFunction,Plated,1,4,PTH
FMAT,2
INCH
; #@! TA.AperFunction,Plated,PTH,ViaDrill
T1C0.0118
; #@! TA.AperFunction,Plated,PTH,ComponentDrill
T2C0.0394
; #@! TA.AperFunction,Plated,PTH,ComponentDrill
T3C0.0472
; #@! TA.AperFunction,Plated,PTH,ComponentDrill
T4C0.0610
; #@! TA.AperFunction,Plated,PTH,ComponentDrill
T5C0.0689
; #@! TA.AperFunction,Plated,PTH,ComponentDrill
T6C0.0701
%
G90
G05
T1
X5.3543Y-3.6417
X5.3543Y-3.6811
X5.3543Y-3.7205
X5.3543Y-3.7598
X5.3543Y-3.7992
X5.3543Y-3.8386
X5.3543Y-3.878
X5.3543Y-3.9173
X5.3543Y-3.9567
X5.3543Y-3.9961
X5.3543Y-4.0354
X5.3543Y-4.0748
X5.3543Y-4.1142
X5.3543Y-4.6654
X5.3543Y-4.7047
X5.3543Y-4.7441
X5.3543Y-4.7835
X5.3543Y-4.8228
X5.3543Y-4.8622
X5.3543Y-4.9016
X5.3543Y-4.9409
X5.3543Y-4.9803
X5.3543Y-5.0197
X5.3543Y-5.0591
X5.3543Y-5.0984
X5.3543Y-5.1378
X5.3543Y-5.1772
X5.3543Y-5.2165
X5.3543Y-5.2559
X5.3543Y-5.2953
X5.3543Y-5.3346
X5.3543Y-5.374
X5.3543Y-5.4134
X5.3543Y-5.4528
X5.3543Y-5.4921
X5.3543Y-5.5315
X5.3543Y-5.5709
X5.3543Y-5.6102
X5.3543Y-5.6496
X5.3543Y-5.689
X5.3543Y-5.7283
X5.3543Y-5.7677
X5.3543Y-5.8071
X5.3543Y-5.8465
X5.3543Y-5.8858
X5.3543Y-5.9252
X5.3543Y-5.9646
X5.3543Y-6.0039
X5.3543Y-6.0433
X5.3543Y-6.0827
X5.3937Y-5.0197
X5.3937Y-5.0591
X5.3937Y-5.0984
X5.3937Y-5.1378
X5.3937Y-5.1772
X5.3937Y-5.2165
X5.3937Y-5.2559
X5.3937Y-5.2953
X5.3937Y-5.3346
X5.3937Y-5.374
X5.3937Y-5.4134
X5.3937Y-5.4528
X5.3937Y-5.4921
X5.3937Y-5.5315
X5.3937Y-5.5709
X5.3937Y-5.6102
X5.3937Y-5.6496
X5.4331Y-5.0197
X5.4331Y-5.0591
X5.4331Y-5.0984
X5.4331Y-5.1378
X5.4331Y-5.1772
X5.4331Y-5.2165
X5.4331Y-5.2559
X5.4331Y-5.2953
X5.4331Y-5.3346
X5.4331Y-5.374
X5.4331Y-5.4134
X5.4331Y-5.4528
X5.4331Y-5.4921
X5.4331Y-5.5315
X5.4331Y-5.5709
X5.4331Y-5.6102
X5.4331Y-5.6496
X5.4724Y-5.0197
X5.4724Y-5.0591
X5.4724Y-5.0984
X5.4724Y-5.1378
X5.4724Y-5.1772
X5.4724Y-5.2165
X5.4724Y-5.2559
X5.4724Y-5.2953
X5.4724Y-5.3346
X5.4724Y-5.374
X5.4724Y-5.4134
X5.4724Y-5.4528
X5.4724Y-5.4921
X5.4724Y-5.5315
X5.4724Y-5.5709
X5.4724Y-5.6102
X5.4724Y-5.6496
X5.4724Y-5.689
X5.5118Y-5.0197
X5.5118Y-5.0591
X5.5118Y-5.0984
X5.5118Y-5.1378
X5.5118Y-5.1772
X5.5118Y-5.2165
X5.5118Y-5.2559
X5.5118Y-5.2953
X5.5118Y-5.3346
X5.5118Y-5.374
X5.5118Y-5.4134
X5.5118Y-5.4528
X5.5118Y-5.4921
X5.5118Y-5.5315
X5.5118Y-5.5709
X5.5118Y-5.6102
X5.5118Y-5.6496
X5.5118Y-5.689
X5.5118Y-5.7283
X5.5512Y-5.0197
X5.5512Y-5.0591
X5.5512Y-5.0984
X5.5512Y-5.1378
X5.5512Y-5.1772
X5.5512Y-5.2165
X5.5512Y-5.2559
X5.5512Y-5.2953
X5.5512Y-5.3346
X5.5512Y-5.374
X5.5512Y-5.4134
X5.5512Y-5.4528
X5.5512Y-5.4921
X5.5512Y-5.5315
X5.5512Y-5.5709
X5.5512Y-5.6102
X5.5512Y-5.6496
X5.5512Y-5.689
X5.5512Y-5.7283
X5.5512Y-5.7677
X5.5906Y-5.0197
X5.5906Y-5.0591
X5.5906Y-5.0984
X5.5906Y-5.1378
X5.5906Y-5.1772
X5.5906Y-5.2165
X5.5906Y-5.2559
X5.5906Y-5.2953
X5.5906Y-5.3346
X5.5906Y-5.374
X5.5906Y-5.4134
X5.5906Y-5.4528
X5.5906Y-5.4921
X5.5906Y-5.5315
X5.5906Y-5.5709
X5.5906Y-5.6102
X5.5906Y-5.6496
X5.5906Y-5.689
X5.5906Y-5.7283
X5.5906Y-5.7677
X5.5906Y-5.8071
X5.6299Y-5.0197
X5.6299Y-5.0591
X5.6299Y-5.0984
X5.6299Y-5.1378
X5.6299Y-5.1772
X5.6299Y-5.2165
X5.6299Y-5.2559
X5.6299Y-5.2953
X5.6299Y-5.3346
X5.6299Y-5.374
X5.6299Y-5.4134
X5.6299Y-5.4528
X5.6299Y-5.4921
X5.6299Y-5.5315
X5.6299Y-5.5709
X5.6299Y-5.6102
X5.6299Y-5.6496
X5.6299Y-5.689
X5.6299Y-5.7283
X5.6299Y-5.7677
X5.6299Y-5.8071
X5.6299Y-5.8465
X5.8858Y-5.1575
X5.8858Y-5.1969
X5.8858Y-5.2362
X5.8858Y-5.2756
X5.8858Y-5.315
X5.8858Y-5.3543
X5.8858Y-5.3957
X5.8858Y-5.435
X5.8858Y-5.4744
X5.8858Y-5.5138
X5.8858Y-5.5531
X5.8858Y-5.5925
X5.9094Y-5.0138
X5.9094Y-5.0374
X5.9094Y-5.061
X5.9567Y-5.6358
X5.9587Y-5.0979
X5.9724Y-4.7795
X5.9823Y-5.0979
X5.9961Y-5.6358
X6.0059Y-5.0979
X6.0088Y-5.3022
X6.0276Y-5.4882
X6.0354Y-5.6358
X6.0748Y-5.6358
X6.0862Y-5.2741
X6.089Y-6.0217
X6.1142Y-5.6358
X6.124Y-5.4257
X6.126Y-5.0453
X6.1435Y-3.9077
X6.1496Y-5.0453
X6.1535Y-5.6358
X6.1732Y-5.0453
X6.1801Y-5.2077
X6.1838Y-5.4158
X6.1949Y-5.6358
X6.2037Y-5.2077
X6.2274Y-5.2077
X6.2333Y-5.0453
X6.2343Y-5.6358
X6.2366Y-5.9665
X6.252Y-5.4872
X6.2569Y-5.0453
X6.2736Y-5.6358
X6.2805Y-5.0453
X6.2953Y-3.6024
X6.311Y-5.5551
X6.313Y-5.6358
X6.3415Y-5.2884
X6.3524Y-5.6358
X6.3917Y-5.6358
X6.3951Y-5.477
X6.3976Y-6.0433
X6.3996Y-5.0965
X6.4232Y-5.0965
X6.4331Y-5.6358
X6.4469Y-5.0965
X6.4685Y-4.7835
X6.4724Y-5.6358
X6.4961Y-5.0118
X6.4961Y-5.0354
X6.4961Y-5.0591
X6.5118Y-5.6358
X6.5236Y-5.3504
X6.5354Y-4.9213
X6.5354Y-4.9606
X6.5354Y-5.0
X6.5354Y-5.0394
X6.5378Y-5.9961
X6.5512Y-5.6358
X6.5748Y-4.9213
X6.5748Y-4.9606
X6.5748Y-5.0
X6.5748Y-5.0394
X6.6142Y-4.9213
X6.6142Y-4.9606
X6.6142Y-5.0
X6.6142Y-5.0394
X6.626Y-5.1555
X6.626Y-5.1949
X6.626Y-5.2343
X6.626Y-5.2736
X6.626Y-5.313
X6.626Y-5.3524
X6.626Y-5.3937
X6.626Y-5.4331
X6.626Y-5.4724
X6.626Y-5.5118
X6.626Y-5.5512
X6.626Y-5.5906
X6.6535Y-4.9213
X6.6535Y-4.9606
X6.6535Y-5.0
X6.6535Y-5.0394
X6.7638Y-4.2874
X6.7638Y-4.3583
X6.8228Y-4.1575
X6.8228Y-4.252
X6.8268Y-4.4055
X6.8268Y-4.5039
X6.8268Y-4.6063
X6.8465Y-4.3504
X6.8465Y-4.6614
X6.8504Y-4.9213
X6.8504Y-4.9606
X6.8504Y-5.0
X6.8504Y-5.0394
X6.8504Y-5.0787
X6.8504Y-5.1181
X6.8504Y-5.1575
X6.8504Y-5.1969
X6.8504Y-5.2362
X6.8504Y-5.2756
X6.8504Y-5.315
X6.8504Y-5.3543
X6.8504Y-5.3937
X6.8504Y-5.4331
X6.8504Y-5.4724
X6.8504Y-5.5118
X6.8504Y-5.689
X6.8504Y-5.7283
X6.8504Y-5.7677
X6.8504Y-5.8071
X6.8504Y-5.8465
X6.8504Y-5.8858
X6.8504Y-5.9252
X6.8701Y-4.1575
X6.8701Y-4.252
X6.8898Y-4.9213
X6.8898Y-4.9606
X6.8898Y-5.0
X6.8898Y-5.0394
X6.8898Y-5.0787
X6.8898Y-5.1181
X6.8898Y-5.1575
X6.8898Y-5.1969
X6.8898Y-5.2362
X6.8898Y-5.2756
X6.8898Y-5.315
X6.8898Y-5.3543
X6.8898Y-5.3937
X6.8898Y-5.4331
X6.8898Y-5.4724
X6.8898Y-5.5118
X6.8898Y-5.689
X6.8898Y-5.7283
X6.8898Y-5.7677
X6.8898Y-5.8071
X6.8898Y-5.8465
X6.8898Y-5.8858
X6.8898Y-5.9252
X6.9016Y-4.3307
X6.9016Y-4.6811
X6.9173Y-4.1575
X6.9173Y-4.252
X6.9291Y-4.9606
X6.9291Y-5.0
X6.9291Y-5.0394
X6.9291Y-5.0787
X6.9291Y-5.1181
X6.9291Y-5.1575
X6.9291Y-5.1969
X6.9291Y-5.2362
X6.9291Y-5.2756
X6.9291Y-5.315
X6.9291Y-5.3543
X6.9291Y-5.3937
X6.9291Y-5.4331
X6.9291Y-5.4724
X6.9291Y-5.5118
X6.9291Y-5.5512
X6.9291Y-5.7283
X6.9291Y-5.7677
X6.9291Y-5.8071
X6.9291Y-5.8465
X6.9291Y-5.8858
X6.9291Y-5.9252
X6.9646Y-4.1575
X6.9646Y-4.252
X6.9646Y-4.2953
X6.9646Y-4.3543
X7.0Y-4.6811
X7.0354Y-4.2441
X7.0354Y-4.2953
X7.0354Y-4.3543
X7.0984Y-4.3307
X7.0984Y-4.6811
X7.1535Y-4.3504
X7.1535Y-4.6614
X7.1732Y-4.4055
X7.1732Y-4.5079
X7.1732Y-4.6063
X7.2047Y-4.2047
X7.2618Y-3.6201
X7.2657Y-3.9291
X7.3228Y-4.7047
X7.3445Y-3.7697
X7.3622Y-4.7047
X7.3622Y-4.7441
X7.374Y-3.7697
X7.4016Y-4.7047
X7.4016Y-4.7441
X7.4016Y-4.7835
X7.4035Y-3.7697
X7.4331Y-3.7697
X7.4409Y-4.7047
X7.4409Y-4.7441
X7.4409Y-4.7835
X7.4409Y-4.8228
X7.4409Y-4.8622
X7.4409Y-4.9016
X7.4409Y-4.9409
X7.4409Y-4.9803
X7.4409Y-5.0197
X7.4409Y-5.0591
X7.4409Y-5.0984
X7.4409Y-5.1378
X7.4409Y-5.1772
X7.4409Y-5.2165
X7.4409Y-5.2559
X7.4409Y-5.2953
X7.4409Y-5.3346
X7.4409Y-5.374
X7.4409Y-5.4134
X7.4409Y-5.4528
X7.4409Y-5.4921
X7.4409Y-5.5315
X7.4409Y-5.5709
X7.4409Y-5.6102
X7.4409Y-5.6496
X7.4409Y-5.689
X7.4409Y-5.7283
X7.4409Y-5.7677
X7.4409Y-5.8071
X7.4409Y-5.8465
X7.4409Y-5.8858
X7.4409Y-5.9252
X7.4409Y-5.9646
X7.4409Y-6.0039
X7.4409Y-6.0433
X7.4409Y-6.0827
X7.4409Y-6.122
X7.4409Y-6.1614
X7.4409Y-6.2008
X7.4409Y-6.2402
X7.4409Y-6.2795
X7.4567Y-4.2047
X7.4803Y-4.7047
X7.4803Y-4.7441
X7.4803Y-4.7835
X7.4803Y-4.8228
X7.4803Y-4.8622
X7.4803Y-4.9016
X7.4803Y-4.9409
X7.4803Y-4.9803
X7.4803Y-5.0197
X7.4803Y-5.0591
X7.4803Y-5.0984
X7.4803Y-5.1378
X7.4803Y-5.1772
X7.4803Y-5.2165
X7.4803Y-5.2559
X7.4803Y-5.2953
X7.4803Y-5.3346
X7.4803Y-5.374
X7.4803Y-5.4134
X7.4803Y-5.4528
X7.4803Y-5.4921
X7.4803Y-5.5315
X7.4803Y-5.5709
X7.4803Y-5.6102
X7.4803Y-5.6496
X7.4803Y-5.689
X7.4803Y-5.7283
X7.4803Y-5.7677
X7.4803Y-5.8071
X7.4803Y-5.8465
X7.4803Y-5.8858
X7.4803Y-5.9252
X7.4803Y-5.9646
X7.4803Y-6.0039
X7.4803Y-6.0433
X7.4803Y-6.0827
X7.4803Y-6.122
X7.4803Y-6.1614
X7.4803Y-6.2008
X7.4803Y-6.2402
X7.4803Y-6.2795
X7.5157Y-3.5512
X7.5197Y-4.7047
X7.5197Y-4.7441
X7.5197Y-4.7835
X7.5197Y-4.8228
X7.5197Y-4.8622
X7.5197Y-4.9016
X7.5197Y-4.9409
X7.5197Y-4.9803
X7.5197Y-5.0197
X7.5197Y-5.0591
X7.5197Y-5.0984
X7.5197Y-5.1378
X7.5197Y-5.1772
X7.5197Y-5.2165
X7.5197Y-5.2559
X7.5197Y-5.2953
X7.5197Y-5.3346
X7.5197Y-5.374
X7.5197Y-5.4134
X7.5197Y-5.4528
X7.5197Y-5.4921
X7.5197Y-5.5315
X7.5197Y-5.5709
X7.5197Y-5.6102
X7.5197Y-5.6496
X7.5197Y-5.689
X7.5197Y-5.7283
X7.5197Y-5.7677
X7.5197Y-5.8071
X7.5197Y-5.8465
X7.5197Y-5.8858
X7.5197Y-5.9252
X7.5197Y-5.9646
X7.5197Y-6.0039
X7.5197Y-6.0433
X7.5197Y-6.0827
X7.5197Y-6.122
X7.5197Y-6.1614
X7.5197Y-6.2008
X7.5197Y-6.2402
X7.5197Y-6.2795
X7.5591Y-4.7047
X7.5591Y-4.7441
X7.5591Y-4.7835
X7.5591Y-4.8228
X7.5591Y-4.8622
X7.5591Y-4.9016
X7.5591Y-4.9409
X7.5591Y-4.9803
X7.5591Y-5.0197
X7.5591Y-5.0591
X7.5591Y-5.0984
X7.5591Y-5.1378
X7.5591Y-5.1772
X7.5591Y-5.2165
X7.5591Y-5.2559
X7.5591Y-5.2953
X7.5591Y-5.3346
X7.5591Y-5.374
X7.5591Y-5.4134
X7.5591Y-5.4528
X7.5591Y-5.4921
X7.5591Y-5.5315
X7.5591Y-5.5709
X7.5591Y-5.6102
X7.5591Y-5.6496
X7.5591Y-5.689
X7.5591Y-5.7283
X7.5591Y-5.7677
X7.5591Y-5.8071
X7.5591Y-5.8465
X7.5591Y-5.8858
X7.5591Y-5.9252
X7.5591Y-5.9646
X7.5591Y-6.0039
X7.5591Y-6.0433
X7.5591Y-6.0827
X7.5591Y-6.122
X7.5591Y-6.1614
X7.5591Y-6.2008
X7.5591Y-6.2402
X7.5591Y-6.2795
X7.5984Y-4.7047
X7.5984Y-4.7441
X7.5984Y-4.7835
X7.5984Y-4.8228
X7.5984Y-4.8622
X7.5984Y-4.9016
X7.5984Y-4.9409
X7.5984Y-4.9803
X7.5984Y-5.0197
X7.5984Y-5.0591
X7.5984Y-5.0984
X7.5984Y-5.1378
X7.5984Y-5.1772
X7.5984Y-5.2165
X7.5984Y-5.2559
X7.5984Y-5.2953
X7.5984Y-5.3346
X7.5984Y-5.374
X7.5984Y-5.4134
X7.5984Y-5.4528
X7.5984Y-5.4921
X7.5984Y-5.5315
X7.5984Y-5.5709
X7.5984Y-5.6102
X7.5984Y-5.6496
X7.5984Y-5.689
X7.5984Y-5.7283
X7.5984Y-5.7677
X7.5984Y-5.8071
X7.5984Y-5.8465
X7.5984Y-5.8858
X7.5984Y-5.9252
X7.5984Y-5.9646
X7.5984Y-6.0039
X7.5984Y-6.0433
X7.5984Y-6.0827
X7.5984Y-6.122
X7.5984Y-6.1614
X7.5984Y-6.2008
X7.5984Y-6.2402
X7.5984Y-6.2795
X7.6378Y-4.7047
X7.6378Y-4.7441
X7.6378Y-4.7835
X7.6378Y-4.8228
X7.6378Y-4.8622
X7.6378Y-4.9016
X7.6378Y-4.9409
X7.6378Y-4.9803
X7.6378Y-5.0197
X7.6378Y-5.0591
X7.6378Y-5.0984
X7.6378Y-5.1378
X7.6378Y-5.1772
X7.6378Y-5.2165
X7.6378Y-5.2559
X7.6378Y-5.2953
X7.6378Y-5.3346
X7.6378Y-5.374
X7.6378Y-5.4134
X7.6378Y-5.4528
X7.6378Y-5.4921
X7.6378Y-5.5315
X7.6378Y-5.5709
X7.6378Y-5.6102
X7.6378Y-5.6496
X7.6378Y-5.689
X7.6378Y-5.7283
X7.6378Y-5.7677
X7.6378Y-5.8071
X7.6378Y-5.8465
X7.6378Y-5.8858
X7.6378Y-5.9252
X7.6378Y-5.9646
X7.6378Y-6.0039
X7.6378Y-6.0433
X7.6378Y-6.0827
X7.6378Y-6.122
X7.6378Y-6.1614
X7.6378Y-6.2008
X7.6378Y-6.2402
X7.6378Y-6.2795
X7.7047Y-3.6791
X7.813Y-5.9626
X7.8465Y-6.0118
X8.0118Y-3.6811
X8.0118Y-3.7205
X8.0118Y-3.7598
X8.0118Y-3.7992
X8.0118Y-3.8386
X8.0118Y-3.878
X8.0118Y-4.2323
X8.0118Y-4.2717
X8.0118Y-4.311
X8.0118Y-4.3504
X8.0118Y-4.3898
X8.0118Y-4.4291
X8.0118Y-4.4685
X8.0118Y-4.5079
X8.0118Y-4.5472
X8.0118Y-5.2165
X8.0118Y-5.2559
X8.0118Y-5.2953
X8.0118Y-5.3346
X8.0118Y-5.374
X8.0118Y-5.4134
X8.0118Y-5.7677
X8.0118Y-5.8071
X8.0118Y-5.8465
X8.0118Y-5.8858
X8.0118Y-5.9252
X8.0118Y-5.9646
X8.0118Y-6.0039
X8.0118Y-6.0433
X8.0512Y-3.6811
X8.0512Y-3.7205
X8.0512Y-3.7598
X8.0512Y-3.7992
X8.0512Y-3.8386
X8.0512Y-3.878
X8.0512Y-4.2323
X8.0512Y-4.2717
X8.0512Y-4.311
X8.0512Y-4.3504
X8.0512Y-4.3898
X8.0512Y-4.4291
X8.0512Y-4.4685
X8.0512Y-4.5079
X8.0512Y-4.5472
X8.0512Y-5.2165
X8.0512Y-5.2559
X8.0512Y-5.2953
X8.0512Y-5.3346
X8.0512Y-5.374
X8.0512Y-5.4134
X8.0512Y-5.7677
X8.0512Y-5.8071
X8.0512Y-5.8465
X8.0512Y-5.8858
X8.0512Y-5.9252
X8.0512Y-5.9646
X8.0512Y-6.0039
X8.0512Y-6.0433
X8.0906Y-3.6811
X8.0906Y-3.7205
X8.0906Y-3.7598
X8.0906Y-3.7992
X8.0906Y-3.8386
X8.0906Y-3.878
X8.0906Y-4.2323
X8.0906Y-4.2717
X8.0906Y-4.311
X8.0906Y-4.3504
X8.0906Y-4.3898
X8.0906Y-4.4291
X8.0906Y-4.4685
X8.0906Y-4.5079
X8.0906Y-4.5472
X8.0906Y-5.2165
X8.0906Y-5.2559
X8.0906Y-5.2953
X8.0906Y-5.3346
X8.0906Y-5.374
X8.0906Y-5.4134
X8.0906Y-5.7677
X8.0906Y-5.8071
X8.0906Y-5.8465
X8.0906Y-5.8858
X8.0906Y-5.9252
X8.0906Y-5.9646
X8.0906Y-6.0039
X8.0906Y-6.0433
X8.1299Y-3.6811
X8.1299Y-3.7205
X8.1299Y-3.7598
X8.1299Y-3.7992
X8.1299Y-3.8386
X8.1299Y-3.878
X8.1299Y-4.2323
X8.1299Y-4.2717
X8.1299Y-4.311
X8.1299Y-4.3504
X8.1299Y-4.3898
X8.1299Y-4.4291
X8.1299Y-4.4685
X8.1299Y-4.5079
X8.1299Y-4.5472
X8.1299Y-5.2165
X8.1299Y-5.2559
X8.1299Y-5.2953
X8.1299Y-5.3346
X8.1299Y-5.374
X8.1299Y-5.4134
X8.1299Y-5.7677
X8.1299Y-5.8071
X8.1299Y-5.8465
X8.1299Y-5.8858
X8.1299Y-5.9252
X8.1299Y-5.9646
X8.1299Y-6.0039
X8.1299Y-6.0433
X8.1693Y-3.6417
X8.1693Y-3.6811
X8.1693Y-3.7205
X8.1693Y-3.7598
X8.1693Y-3.7992
X8.1693Y-3.8386
X8.1693Y-3.878
X8.1693Y-4.2323
X8.1693Y-4.2717
X8.1693Y-4.311
X8.1693Y-4.3504
X8.1693Y-4.3898
X8.1693Y-4.4291
X8.1693Y-4.4685
X8.1693Y-4.5079
X8.1693Y-4.5472
X8.1693Y-5.2165
X8.1693Y-5.2559
X8.1693Y-5.2953
X8.1693Y-5.3346
X8.1693Y-5.374
X8.1693Y-5.4134
X8.1693Y-5.7677
X8.1693Y-5.8071
X8.1693Y-5.8465
X8.1693Y-5.8858
X8.1693Y-5.9252
X8.1693Y-5.9646
X8.1693Y-6.0039
X8.1693Y-6.0433
X8.1693Y-6.0827
T2
X5.4213Y-3.7362
X5.4213Y-4.7638
X5.4213Y-5.7559
X6.1299Y-4.3504
X6.4331Y-4.3504
X6.5331Y-4.3504
X6.6331Y-4.3504
X7.189Y-3.6004
X7.189Y-3.7004
X7.189Y-3.9094
X7.189Y-4.0094
X7.7736Y-3.4843
X7.7736Y-3.5843
X7.7736Y-3.6843
X7.7736Y-3.7843
X7.7736Y-3.8843
X7.7736Y-3.9843
X7.774Y-4.3898
X7.774Y-4.4898
X7.774Y-4.5898
X7.774Y-4.6898
X7.774Y-4.7898
X7.774Y-4.8898
X7.7795Y-5.2992
X7.7795Y-5.3992
X7.7795Y-5.4992
X7.7795Y-5.5992
X7.7795Y-5.6992
X7.7795Y-5.7992
X7.8736Y-3.4843
X7.8736Y-3.5843
X7.8736Y-3.6843
X7.8736Y-3.7843
X7.8736Y-3.8843
X7.8736Y-3.9843
X7.874Y-4.3898
X7.874Y-4.4898
X7.874Y-4.5898
X7.874Y-4.6898
X7.874Y-4.7898
X7.874Y-4.8898
X7.8795Y-5.2992
X7.8795Y-5.3992
X7.8795Y-5.4992
X7.8795Y-5.5992
X7.8795Y-5.6992
X7.8795Y-5.7992
X8.0925Y-4.9547
X8.0925Y-5.1142
X8.0945Y-3.9843
X8.0945Y-4.1437
X8.0945Y-4.6339
X8.0945Y-4.7933
X8.0945Y-5.5059
X8.0945Y-5.6654
T3
X5.6693Y-6.1535
X5.6693Y-6.252
X5.7677Y-6.1535
X5.7677Y-6.252
X5.8661Y-6.1535
X5.8661Y-6.252
X6.5974Y-6.1541
X6.5974Y-6.2526
X6.6959Y-6.1541
X6.6959Y-6.2526
X6.7943Y-6.1541
X6.7943Y-6.2526
X6.8927Y-6.1541
X6.8927Y-6.2526
X7.1929Y-5.7654
X7.1929Y-5.8638
X7.1929Y-6.252
X7.2913Y-5.7654
X7.2913Y-5.8638
X7.2913Y-6.252
T4
X7.0001Y-4.5057
T5
X6.9001Y-4.4057
X6.9001Y-4.6057
X7.1001Y-4.4057
X7.1001Y-4.6057
T6
X7.1299Y-4.9252
X7.1299Y-5.3157
X7.2638Y-4.9252
X7.2638Y-5.3157
M30
