%TF.GenerationSoftware,KiCad,Pcbnew,9.0.1*%
%TF.CreationDate,2026-03-16T12:34:34-05:00*%
%TF.ProjectId,TSOMProject,54534f4d-5072-46f6-9a65-63742e6b6963,rev?*%
%TF.SameCoordinates,Original*%
%TF.FileFunction,Soldermask,Top*%
%TF.FilePolarity,Negative*%
%FSLAX46Y46*%
G04 Gerber Fmt 4.6, Leading zero omitted, Abs format (unit mm)*
G04 Created by KiCad (PCBNEW 9.0.1) date 2026-03-16 12:34:34*
%MOMM*%
%LPD*%
G01*
G04 APERTURE LIST*
G04 Aperture macros list*
%AMRoundRect*
0 Rectangle with rounded corners*
0 $1 Rounding radius*
0 $2 $3 $4 $5 $6 $7 $8 $9 X,Y pos of 4 corners*
0 Add a 4 corners polygon primitive as box body*
4,1,4,$2,$3,$4,$5,$6,$7,$8,$9,$2,$3,0*
0 Add four circle primitives for the rounded corners*
1,1,$1+$1,$2,$3*
1,1,$1+$1,$4,$5*
1,1,$1+$1,$6,$7*
1,1,$1+$1,$8,$9*
0 Add four rect primitives between the rounded corners*
20,1,$1+$1,$2,$3,$4,$5,0*
20,1,$1+$1,$4,$5,$6,$7,0*
20,1,$1+$1,$6,$7,$8,$9,0*
20,1,$1+$1,$8,$9,$2,$3,0*%
%AMFreePoly0*
4,1,22,0.695671,0.830970,0.776777,0.776777,0.830970,0.695671,0.850000,0.600000,0.850000,-0.600000,0.830970,-0.695671,0.776777,-0.776777,0.695671,-0.830970,0.600000,-0.850000,-0.346447,-0.850000,-0.442118,-0.830970,-0.523224,-0.776777,-0.776777,-0.523224,-0.830970,-0.442118,-0.850000,-0.346447,-0.850000,0.600000,-0.830970,0.695671,-0.776777,0.776777,-0.695671,0.830970,-0.600000,0.850000,
0.600000,0.850000,0.695671,0.830970,0.695671,0.830970,$1*%
%AMFreePoly1*
4,1,22,0.945671,0.830970,1.026777,0.776777,1.080970,0.695671,1.100000,0.600000,1.100000,-0.600000,1.080970,-0.695671,1.026777,-0.776777,0.945671,-0.830970,0.850000,-0.850000,-0.450000,-0.850000,-0.545671,-0.830970,-0.626777,-0.776777,-1.026777,-0.376777,-1.080970,-0.295671,-1.100000,-0.200000,-1.100000,0.600000,-1.080970,0.695671,-1.026777,0.776777,-0.945671,0.830970,-0.850000,0.850000,
0.850000,0.850000,0.945671,0.830970,0.945671,0.830970,$1*%
G04 Aperture macros list end*
%ADD10RoundRect,0.237500X0.287500X0.237500X-0.287500X0.237500X-0.287500X-0.237500X0.287500X-0.237500X0*%
%ADD11RoundRect,0.237500X0.250000X0.237500X-0.250000X0.237500X-0.250000X-0.237500X0.250000X-0.237500X0*%
%ADD12C,2.000000*%
%ADD13FreePoly0,270.000000*%
%ADD14C,1.700000*%
%ADD15RoundRect,0.237500X-0.250000X-0.237500X0.250000X-0.237500X0.250000X0.237500X-0.250000X0.237500X0*%
%ADD16R,2.750000X1.000000*%
%ADD17R,1.700000X1.700000*%
%ADD18RoundRect,0.237500X-0.287500X-0.237500X0.287500X-0.237500X0.287500X0.237500X-0.287500X0.237500X0*%
%ADD19C,2.780000*%
%ADD20RoundRect,0.250000X0.337500X0.475000X-0.337500X0.475000X-0.337500X-0.475000X0.337500X-0.475000X0*%
%ADD21RoundRect,0.237500X-0.237500X0.300000X-0.237500X-0.300000X0.237500X-0.300000X0.237500X0.300000X0*%
%ADD22RoundRect,0.237500X-0.237500X0.250000X-0.237500X-0.250000X0.237500X-0.250000X0.237500X0.250000X0*%
%ADD23R,1.200000X0.450000*%
%ADD24RoundRect,0.237500X0.300000X0.237500X-0.300000X0.237500X-0.300000X-0.237500X0.300000X-0.237500X0*%
%ADD25RoundRect,0.237500X-0.300000X-0.237500X0.300000X-0.237500X0.300000X0.237500X-0.300000X0.237500X0*%
%ADD26R,0.750000X1.000000*%
%ADD27R,0.750000X0.480000*%
%ADD28R,4.560000X2.720000*%
%ADD29R,5.560000X0.910000*%
%ADD30R,4.560000X0.420000*%
%ADD31RoundRect,0.237500X0.237500X-0.250000X0.237500X0.250000X-0.237500X0.250000X-0.237500X-0.250000X0*%
%ADD32RoundRect,0.237500X0.237500X-0.300000X0.237500X0.300000X-0.237500X0.300000X-0.237500X-0.300000X0*%
%ADD33RoundRect,0.250000X0.650000X-0.412500X0.650000X0.412500X-0.650000X0.412500X-0.650000X-0.412500X0*%
%ADD34RoundRect,0.250000X-0.600000X0.600000X-0.600000X-0.600000X0.600000X-0.600000X0.600000X0.600000X0*%
%ADD35RoundRect,0.102000X-3.250000X-0.850000X3.250000X-0.850000X3.250000X0.850000X-3.250000X0.850000X0*%
%ADD36R,1.970000X1.670000*%
%ADD37C,2.529000*%
%ADD38C,2.829000*%
%ADD39FreePoly1,270.000000*%
%ADD40O,1.700000X2.200000*%
%ADD41R,0.475000X0.250000*%
%ADD42R,0.250000X0.475000*%
%ADD43RoundRect,0.250000X-1.100000X0.412500X-1.100000X-0.412500X1.100000X-0.412500X1.100000X0.412500X0*%
%ADD44R,1.150000X0.750000*%
%ADD45R,0.800000X0.350000*%
%ADD46R,1.075000X0.400000*%
%ADD47R,0.825000X0.250000*%
%ADD48R,1.100000X0.200000*%
%ADD49R,0.750000X0.350000*%
%ADD50R,0.250000X0.675000*%
%ADD51R,0.250000X0.825000*%
%ADD52R,0.350000X2.975000*%
%ADD53RoundRect,0.102000X-0.760000X0.760000X-0.760000X-0.760000X0.760000X-0.760000X0.760000X0.760000X0*%
%ADD54RoundRect,0.102000X-1.270000X0.760000X-1.270000X-0.760000X1.270000X-0.760000X1.270000X0.760000X0*%
%ADD55RoundRect,0.175000X0.325000X0.175000X-0.325000X0.175000X-0.325000X-0.175000X0.325000X-0.175000X0*%
%ADD56RoundRect,0.250000X1.100000X-0.412500X1.100000X0.412500X-1.100000X0.412500X-1.100000X-0.412500X0*%
%ADD57R,2.006600X0.990600*%
G04 APERTURE END LIST*
D10*
%TO.C,FB1*%
X152675000Y-92900000D03*
X150925000Y-92900000D03*
%TD*%
D11*
%TO.C,R2*%
X188550000Y-98825000D03*
X186725000Y-98825000D03*
%TD*%
D12*
%TO.C,TP9*%
X205600000Y-121750000D03*
%TD*%
%TO.C,TP10*%
X205600000Y-117700000D03*
%TD*%
%TO.C,TP11*%
X205600000Y-139850000D03*
%TD*%
D13*
%TO.C,J13*%
X149000000Y-156300000D03*
D14*
X146500000Y-156300000D03*
X144000000Y-156300000D03*
X149000000Y-158800000D03*
X146500000Y-158800000D03*
X144000000Y-158800000D03*
%TD*%
D12*
%TO.C,TP4*%
X137700000Y-121000000D03*
%TD*%
D15*
%TO.C,R33*%
X162950000Y-138185000D03*
X164775000Y-138185000D03*
%TD*%
D16*
%TO.C,SW4*%
X151600000Y-106850000D03*
X145850000Y-106850000D03*
X151600000Y-102850000D03*
X145850000Y-102850000D03*
%TD*%
D17*
%TO.C,J4*%
X200000000Y-124200000D03*
D14*
X197460000Y-124200000D03*
X200000000Y-121660000D03*
X197460000Y-121660000D03*
X200000000Y-119120000D03*
X197460000Y-119120000D03*
X200000000Y-116580000D03*
X197460000Y-116580000D03*
X200000000Y-114040000D03*
X197460000Y-114040000D03*
X200000000Y-111500000D03*
X197460000Y-111500000D03*
%TD*%
D18*
%TO.C,D6*%
X137100000Y-150000000D03*
X138850000Y-150000000D03*
%TD*%
D11*
%TO.C,R1*%
X191862500Y-98825000D03*
X190037500Y-98825000D03*
%TD*%
D19*
%TO.C,F1*%
X184500000Y-125100000D03*
X181100000Y-125100000D03*
X184500000Y-135020000D03*
X181100000Y-135020000D03*
%TD*%
D11*
%TO.C,R19*%
X142187500Y-98700000D03*
X140362500Y-98700000D03*
%TD*%
D20*
%TO.C,C17*%
X151837500Y-146700000D03*
X149762500Y-146700000D03*
%TD*%
D11*
%TO.C,R20*%
X142187500Y-150000000D03*
X140362500Y-150000000D03*
%TD*%
D17*
%TO.C,J6*%
X200140000Y-147300000D03*
D14*
X197600000Y-147300000D03*
X200140000Y-144760000D03*
X197600000Y-144760000D03*
X200140000Y-142220000D03*
X197600000Y-142220000D03*
X200140000Y-139680000D03*
X197600000Y-139680000D03*
X200140000Y-137140000D03*
X197600000Y-137140000D03*
X200140000Y-134600000D03*
X197600000Y-134600000D03*
%TD*%
D21*
%TO.C,C8*%
X193350000Y-100450000D03*
X193350000Y-102175000D03*
%TD*%
D22*
%TO.C,R23*%
X159525000Y-138462500D03*
X159525000Y-140287500D03*
%TD*%
D21*
%TO.C,C10*%
X153812500Y-131912500D03*
X153812500Y-133637500D03*
%TD*%
D17*
%TO.C,J11*%
X163400000Y-110500000D03*
D14*
X165940000Y-110500000D03*
X168480000Y-110500000D03*
%TD*%
D10*
%TO.C,L2*%
X178600000Y-106800000D03*
X176850000Y-106800000D03*
%TD*%
D12*
%TO.C,TP7*%
X205550000Y-129900000D03*
%TD*%
D17*
%TO.C,CC_Term2*%
X182600000Y-91450000D03*
D14*
X182600000Y-93990000D03*
%TD*%
D21*
%TO.C,C27*%
X152600000Y-98587500D03*
X152600000Y-100312500D03*
%TD*%
D12*
%TO.C,TP2*%
X137700000Y-94900000D03*
%TD*%
D18*
%TO.C,D7*%
X137050000Y-124800000D03*
X138800000Y-124800000D03*
%TD*%
D10*
%TO.C,CC_FLT2*%
X188525000Y-97025000D03*
X186775000Y-97025000D03*
%TD*%
%TO.C,LVPWR1*%
X166210000Y-144950000D03*
X164460000Y-144950000D03*
%TD*%
D11*
%TO.C,R37*%
X156512500Y-138475000D03*
X154687500Y-138475000D03*
%TD*%
%TO.C,R36*%
X164775000Y-135175000D03*
X162950000Y-135175000D03*
%TD*%
D10*
%TO.C,CC_FLT1*%
X188525000Y-89175000D03*
X186775000Y-89175000D03*
%TD*%
D12*
%TO.C,TP12*%
X205600000Y-143900000D03*
%TD*%
D23*
%TO.C,IC3*%
X163735000Y-153200000D03*
X163735000Y-152550000D03*
X163735000Y-151900000D03*
X163735000Y-151250000D03*
X161235000Y-151250000D03*
X161235000Y-151900000D03*
X161235000Y-152550000D03*
X161235000Y-153200000D03*
%TD*%
D24*
%TO.C,C1*%
X197425500Y-154500000D03*
X195700500Y-154500000D03*
%TD*%
D25*
%TO.C,C29*%
X149312500Y-98550000D03*
X151037500Y-98550000D03*
%TD*%
D26*
%TO.C,Q6*%
X154635000Y-150750000D03*
X155905000Y-150750000D03*
X157175000Y-150750000D03*
X158445000Y-150750000D03*
D27*
X158445000Y-144990000D03*
X154635000Y-144990000D03*
D28*
X156540000Y-146590000D03*
D29*
X156540000Y-148405000D03*
D30*
X156540000Y-149070000D03*
%TD*%
D31*
%TO.C,R31*%
X166835000Y-153212500D03*
X166835000Y-151387500D03*
%TD*%
D22*
%TO.C,R3*%
X185150000Y-97012500D03*
X185150000Y-98837500D03*
%TD*%
D24*
%TO.C,C19*%
X151900000Y-148450000D03*
X150175000Y-148450000D03*
%TD*%
D17*
%TO.C,CC_Term1*%
X182600000Y-99300000D03*
D14*
X182600000Y-101840000D03*
%TD*%
D32*
%TO.C,C20*%
X151900000Y-153175000D03*
X151900000Y-151450000D03*
%TD*%
D15*
%TO.C,R26*%
X159987500Y-90500000D03*
X161812500Y-90500000D03*
%TD*%
D33*
%TO.C,C5*%
X151912500Y-131050000D03*
X151912500Y-127925000D03*
%TD*%
D34*
%TO.C,J10*%
X175075000Y-156315000D03*
D14*
X172575000Y-156315000D03*
X170075000Y-156315000D03*
X167575000Y-156315000D03*
X175075000Y-158815000D03*
X172575000Y-158815000D03*
X170075000Y-158815000D03*
X167575000Y-158815000D03*
%TD*%
D15*
%TO.C,R35*%
X162950000Y-133715000D03*
X164775000Y-133715000D03*
%TD*%
D23*
%TO.C,IC2*%
X191750000Y-94475000D03*
X191750000Y-93825000D03*
X191750000Y-93175000D03*
X191750000Y-92525000D03*
X189250000Y-92525000D03*
X189250000Y-93175000D03*
X189250000Y-93825000D03*
X189250000Y-94475000D03*
%TD*%
D12*
%TO.C,TP5*%
X205600000Y-105250000D03*
%TD*%
D21*
%TO.C,C7*%
X194850000Y-100450000D03*
X194850000Y-102175000D03*
%TD*%
D35*
%TO.C,L1*%
X157562500Y-121375000D03*
X157562500Y-125975000D03*
%TD*%
D36*
%TO.C,D11*%
X161660000Y-147350000D03*
X165710000Y-147350000D03*
%TD*%
D25*
%TO.C,C12*%
X152862500Y-135425000D03*
X154587500Y-135425000D03*
%TD*%
D11*
%TO.C,R27*%
X174462500Y-100750000D03*
X172637500Y-100750000D03*
%TD*%
D37*
%TO.C,J2*%
X177802201Y-114444906D03*
D38*
X175262201Y-111904906D03*
X180342201Y-111904906D03*
X175262201Y-116984906D03*
X180342201Y-116984906D03*
%TD*%
D39*
%TO.C,J1*%
X185200000Y-158800000D03*
D40*
X182700000Y-158800000D03*
%TD*%
D21*
%TO.C,C23*%
X193350000Y-92600000D03*
X193350000Y-94325000D03*
%TD*%
D11*
%TO.C,R24*%
X151100000Y-100350000D03*
X149275000Y-100350000D03*
%TD*%
D25*
%TO.C,C13*%
X154750000Y-140275000D03*
X156475000Y-140275000D03*
%TD*%
D12*
%TO.C,TP6*%
X205600000Y-101200000D03*
%TD*%
D21*
%TO.C,C30*%
X152600000Y-94450000D03*
X152600000Y-96175000D03*
%TD*%
D33*
%TO.C,C2*%
X163162500Y-131050000D03*
X163162500Y-127925000D03*
%TD*%
D31*
%TO.C,R39*%
X158012500Y-140287500D03*
X158012500Y-138462500D03*
%TD*%
D15*
%TO.C,R32*%
X161122500Y-144950000D03*
X162947500Y-144950000D03*
%TD*%
D41*
%TO.C,U1*%
X197887000Y-150700000D03*
X197887000Y-151200000D03*
X197887000Y-151700000D03*
X197887000Y-152200000D03*
D42*
X198550000Y-152362000D03*
X199050000Y-152362000D03*
X199550000Y-152362000D03*
D41*
X200213000Y-152200000D03*
X200213000Y-151700000D03*
X200213000Y-151200000D03*
X200213000Y-150700000D03*
D42*
X199550000Y-150538000D03*
X199050000Y-150538000D03*
X198550000Y-150538000D03*
%TD*%
D24*
%TO.C,C14*%
X162897500Y-149750000D03*
X161172500Y-149750000D03*
%TD*%
D43*
%TO.C,C25*%
X163400000Y-122350000D03*
X163400000Y-125475000D03*
%TD*%
D12*
%TO.C,TP1*%
X155700000Y-110500000D03*
%TD*%
D10*
%TO.C,D8*%
X165100000Y-90500000D03*
X163350000Y-90500000D03*
%TD*%
D11*
%TO.C,R30*%
X166247500Y-149750000D03*
X164422500Y-149750000D03*
%TD*%
D32*
%TO.C,C16*%
X165335000Y-153162500D03*
X165335000Y-151437500D03*
%TD*%
D11*
%TO.C,R28*%
X174462500Y-102250000D03*
X172637500Y-102250000D03*
%TD*%
D21*
%TO.C,C24*%
X194850000Y-92600000D03*
X194850000Y-94325000D03*
%TD*%
D25*
%TO.C,C32*%
X173500000Y-106800000D03*
X175225000Y-106800000D03*
%TD*%
D17*
%TO.C,J8*%
X197450000Y-88500000D03*
D14*
X199990000Y-88500000D03*
X197450000Y-91040000D03*
X199990000Y-91040000D03*
X197450000Y-93580000D03*
X199990000Y-93580000D03*
X197450000Y-96120000D03*
X199990000Y-96120000D03*
X197450000Y-98660000D03*
X199990000Y-98660000D03*
X197450000Y-101200000D03*
X199990000Y-101200000D03*
%TD*%
D43*
%TO.C,C22*%
X151700000Y-122337500D03*
X151700000Y-125462500D03*
%TD*%
D23*
%TO.C,IC1*%
X191750000Y-102325000D03*
X191750000Y-101675000D03*
X191750000Y-101025000D03*
X191750000Y-100375000D03*
X189250000Y-100375000D03*
X189250000Y-101025000D03*
X189250000Y-101675000D03*
X189250000Y-102325000D03*
%TD*%
D15*
%TO.C,R38*%
X156150000Y-136925000D03*
X157975000Y-136925000D03*
%TD*%
D25*
%TO.C,C11*%
X156200000Y-135425000D03*
X157925000Y-135425000D03*
%TD*%
D15*
%TO.C,R29*%
X162010000Y-154700000D03*
X163835000Y-154700000D03*
%TD*%
D32*
%TO.C,C9*%
X161262500Y-130312500D03*
X161262500Y-128587500D03*
%TD*%
D20*
%TO.C,C18*%
X151825000Y-144700000D03*
X149750000Y-144700000D03*
%TD*%
D11*
%TO.C,R22*%
X154637500Y-136950000D03*
X152812500Y-136950000D03*
%TD*%
%TO.C,R10*%
X191862500Y-90975000D03*
X190037500Y-90975000D03*
%TD*%
D32*
%TO.C,C6*%
X153812500Y-130312500D03*
X153812500Y-128587500D03*
%TD*%
D44*
%TO.C,U3*%
X156187500Y-129463000D03*
D45*
X156362500Y-128913000D03*
D46*
X156149500Y-130638000D03*
D47*
X156024500Y-131713000D03*
X156024500Y-132213000D03*
X156024500Y-132713000D03*
D48*
X156162500Y-133188000D03*
D49*
X156337500Y-133463000D03*
D50*
X157062500Y-133301000D03*
D51*
X157562500Y-133226000D03*
D50*
X158062500Y-133301000D03*
D49*
X158787500Y-133463000D03*
D48*
X158962500Y-133188000D03*
D47*
X159100500Y-132713000D03*
X159100500Y-132213000D03*
X159100500Y-131713000D03*
D46*
X158975500Y-130638000D03*
D45*
X158762500Y-128913000D03*
D44*
X158937500Y-129463000D03*
D52*
X157562500Y-130225000D03*
%TD*%
D53*
%TO.C,BAT1*%
X138200000Y-111460000D03*
D54*
X138200000Y-108220000D03*
X138200000Y-114700000D03*
%TD*%
D11*
%TO.C,R40*%
X181950000Y-106800000D03*
X180125000Y-106800000D03*
%TD*%
%TO.C,R21*%
X142187500Y-124800000D03*
X140362500Y-124800000D03*
%TD*%
D24*
%TO.C,C4*%
X200775500Y-154500000D03*
X199050500Y-154500000D03*
%TD*%
D22*
%TO.C,R12*%
X185150000Y-89162500D03*
X185150000Y-90987500D03*
%TD*%
D20*
%TO.C,C3*%
X200737500Y-156300000D03*
X198662500Y-156300000D03*
%TD*%
D13*
%TO.C,J5*%
X185200000Y-146440000D03*
D14*
X182700000Y-146440000D03*
X185200000Y-148940000D03*
X182700000Y-148940000D03*
%TD*%
D11*
%TO.C,R11*%
X188550000Y-90975000D03*
X186725000Y-90975000D03*
%TD*%
D32*
%TO.C,C15*%
X150400000Y-153175000D03*
X150400000Y-151450000D03*
%TD*%
D21*
%TO.C,C28*%
X151100000Y-94450000D03*
X151100000Y-96175000D03*
%TD*%
D31*
%TO.C,R25*%
X149600000Y-96212500D03*
X149600000Y-94387500D03*
%TD*%
D55*
%TO.C,U7*%
X187600000Y-94475000D03*
X187600000Y-92575000D03*
X185200000Y-93525000D03*
%TD*%
D25*
%TO.C,C31*%
X180175000Y-108300000D03*
X181900000Y-108300000D03*
%TD*%
D18*
%TO.C,D5*%
X137050000Y-98700000D03*
X138800000Y-98700000D03*
%TD*%
D12*
%TO.C,TP8*%
X205550000Y-125850000D03*
%TD*%
D15*
%TO.C,R34*%
X162950000Y-136675000D03*
X164775000Y-136675000D03*
%TD*%
D56*
%TO.C,C21*%
X151700000Y-120500000D03*
X151700000Y-117375000D03*
%TD*%
%TO.C,C26*%
X163400000Y-120500000D03*
X163400000Y-117375000D03*
%TD*%
D12*
%TO.C,TP3*%
X137700000Y-146200000D03*
%TD*%
D26*
%TO.C,Q5*%
X158445000Y-153750000D03*
X157175000Y-153750000D03*
X155905000Y-153750000D03*
X154635000Y-153750000D03*
D27*
X154635000Y-159510000D03*
X158445000Y-159510000D03*
D28*
X156540000Y-157910000D03*
D29*
X156540000Y-156095000D03*
D30*
X156540000Y-155430000D03*
%TD*%
D55*
%TO.C,U2*%
X187600000Y-102325000D03*
X187600000Y-100425000D03*
X185200000Y-101375000D03*
%TD*%
D57*
%TO.C,U9*%
X154750000Y-93300001D03*
X154750000Y-94800000D03*
X154750000Y-96300000D03*
X154750000Y-97799999D03*
X154750000Y-99299999D03*
X154750000Y-100799998D03*
X154750000Y-102300001D03*
X154750000Y-103800000D03*
X154750000Y-105300000D03*
X154750000Y-106799999D03*
X170350000Y-106799999D03*
X170350000Y-105300000D03*
X170350000Y-103800000D03*
X170350000Y-102300001D03*
X170350000Y-100800001D03*
X170350000Y-99300002D03*
X170350000Y-97799999D03*
X170350000Y-96300000D03*
X170350000Y-94800000D03*
X170350000Y-93300001D03*
%TD*%
M02*
